<svg width="24.000000" height="24.000000" viewBox="0 0 24 24" fill="none" xmlns="http://www.w3.org/2000/svg" xmlns:xlink="http://www.w3.org/1999/xlink">
	<desc>
			Created with Pixso.
	</desc>
	<defs>
		<clipPath id="clip34_162">
			<rect id="Arrows / download" width="24.000000" height="24.000000" fill="white" fill-opacity="0"/>
		</clipPath>
	</defs>
	<rect id="Arrows / download" width="24.000000" height="24.000000" fill="#FFFFFF" fill-opacity="0"/>
	<g clip-path="url(#clip34_162)">
		<path id="Vector" d="M21 14C20.73 14 20.48 14.1 20.29 14.29C20.1 14.48 20 14.73 20 15L20 19C20 19.26 19.89 19.51 19.7 19.7C19.51 19.89 19.26 20 19 20L5 20C4.73 20 4.48 19.89 4.29 19.7C4.1 19.51 4 19.26 4 19L4 15C4 14.73 3.89 14.48 3.7 14.29C3.51 14.1 3.26 14 3 14C2.73 14 2.48 14.1 2.29 14.29C2.1 14.48 2 14.73 2 15L2 19C2 19.79 2.31 20.55 2.87 21.12C3.44 21.68 4.2 22 5 22L19 22C19.79 22 20.55 21.68 21.12 21.12C21.68 20.55 22 19.79 22 19L22 15C22 14.73 21.89 14.48 21.7 14.29C21.51 14.1 21.26 14 21 14ZM11.29 15.71C11.38 15.8 11.49 15.87 11.62 15.91C11.73 15.97 11.86 16 12 16C12.13 16 12.26 15.97 12.38 15.91C12.5 15.87 12.61 15.8 12.71 15.71L16.7 11.71C16.89 11.52 17 11.26 17 11C17 10.73 16.89 10.47 16.7 10.29C16.52 10.1 16.26 9.99 16 9.99C15.73 9.99 15.47 10.1 15.29 10.29L13 12.59L13 3C13 2.73 12.89 2.48 12.7 2.29C12.51 2.1 12.26 2 12 2C11.73 2 11.48 2.1 11.29 2.29C11.1 2.48 11 2.73 11 3L11 12.59L8.7 10.29C8.61 10.19 8.5 10.12 8.38 10.07C8.26 10.02 8.13 9.99 8 9.99C7.86 9.99 7.73 10.02 7.61 10.07C7.49 10.12 7.38 10.19 7.29 10.29C7.19 10.38 7.12 10.49 7.07 10.61C7.02 10.73 6.99 10.86 6.99 11C6.99 11.13 7.02 11.26 7.07 11.38C7.12 11.5 7.19 11.61 7.29 11.71L11.29 15.71Z" fill="#A53DFF" fill-opacity="1.000000" fill-rule="nonzero"/>
	</g>
</svg>
