<svg version="1.0" xmlns="http://www.w3.org/2000/svg"
 width="684.000000pt" height="819.000000pt" viewBox="0 0 684.000000 819.000000"
 preserveAspectRatio="xMidYMid meet">

<g transform="translate(0.000000,819.000000) scale(0.100000,-0.100000)" fill="#2B384C" stroke="none">
<path d="M0 4095 l0 -4095 3420 0 3420 0 0 4095 0 4095 -3420 0 -3420 0 0
-4095z m1610 780 l0 -2535 -110 0 -110 0 0 2535 0 2535 110 0 110 0 0 -2535z
m3564 2525 l111 0 -521 -522 c-932 -936 -1479 -1501 -1479 -1527 0 -16 668
-720 1125 -1186 454 -462 654 -668 960 -990 167 -176 356 -374 421 -440 64
-66 161 -168 215 -226 54 -58 114 -118 132 -133 17 -15 32 -32 32 -37 0 -5
-62 -9 -139 -9 l-138 0 -165 168 c-91 92 -252 259 -358 372 -387 409 -680 713
-1185 1230 -121 124 -292 299 -380 390 -88 91 -243 251 -345 355 -102 105
-218 225 -257 269 l-70 78 -84 -88 c-46 -49 -137 -144 -201 -211 -106 -110
-136 -153 -109 -153 15 0 29 -53 35 -134 7 -90 10 -97 99 -192 35 -38 93 -103
128 -144 93 -110 359 -408 553 -620 514 -561 638 -692 1018 -1075 125 -127
228 -233 228 -236 0 -3 -64 -5 -142 -3 l-142 3 -111 113 c-61 62 -223 228
-360 368 -138 141 -367 382 -510 535 -252 273 -352 378 -580 615 -61 63 -136
143 -167 178 l-56 63 -7 -83 c-4 -46 -5 -108 -3 -138 l3 -55 -122 0 -123 0 0
1098 0 1098 123 -3 122 -3 5 -483 5 -483 1120 1125 1120 1125 44 -4 c24 -3 94
-5 155 -5z m-2483 -5580 l59 0 0 -606 0 -605 -117 7 c-65 3 -119 7 -120 8 -1
1 -5 1183 -4 1200 1 5 28 6 62 2 34 -3 88 -6 120 -6z m449 -380 c0 -342 2
-390 15 -390 22 0 53 57 67 123 l12 57 79 0 80 0 -5 -80 c-4 -60 -2 -80 8 -80
7 0 48 34 92 75 l80 75 116 0 c64 0 116 -4 116 -8 0 -5 -46 -49 -102 -100 -57
-50 -120 -108 -141 -129 l-37 -39 111 -120 c62 -65 132 -139 156 -165 l43 -45
-131 1 -132 2 -79 89 c-44 49 -84 91 -90 93 -6 2 -8 -8 -5 -25 3 -16 9 -57 12
-91 l7 -63 -101 0 -101 0 0 28 c-1 47 -45 235 -56 239 -22 7 -34 -50 -34 -157
l0 -110 -112 0 -113 0 1 588 c1 323 2 595 3 605 1 15 14 17 121 17 l120 0 0
-390z m-790 95 c40 -21 60 -53 60 -98 0 -31 -7 -46 -34 -73 -30 -30 -40 -34
-84 -34 -114 0 -162 115 -80 192 35 32 91 38 138 13z m1941 -321 c152 -48 240
-177 226 -330 -8 -80 -42 -147 -101 -202 -74 -68 -123 -86 -241 -86 -88 -1
-107 2 -157 26 -172 80 -254 264 -184 414 29 63 106 141 165 167 85 38 195 42
292 11z m-1893 -291 l-3 -308 -107 -3 -108 -3 0 311 0 310 110 0 110 0 -2
-307z m2506 292 c-10 -25 -45 -40 -55 -24 -12 20 -15 11 -26 -70 l-10 -74 30
34 c16 19 54 60 85 92 52 54 59 58 97 55 49 -4 50 -9 40 -154 -6 -96 -20 -146
-32 -116 -7 19 -58 42 -91 42 -41 0 -95 -39 -109 -80 -7 -20 -12 -92 -12 -167
l-1 -133 -109 0 -108 0 -6 68 c-4 37 -7 171 -7 299 l0 232 138 4 c75 1 147 4
159 5 16 1 21 -2 17 -13z" fill=""/>
<path d="M4114 1040 c-31 -12 -72 -66 -80 -105 -20 -107 98 -201 193 -152 55
29 82 126 54 195 -24 57 -104 88 -167 62z"/>
</g>
</svg>
