<svg width="32.000000" height="32.000000" viewBox="0 0 32 32" fill="none" xmlns="http://www.w3.org/2000/svg" xmlns:xlink="http://www.w3.org/1999/xlink">
	<desc>
			Created with Pixso.
	</desc>
	<defs>
		<clipPath id="clip34_218">
			<rect id="Device / computer" width="32.000000" height="32.000000" fill="white" fill-opacity="0"/>
		</clipPath>
	</defs>
	<rect id="Device / computer" width="32.000000" height="32.000000" fill="#FFFFFF" fill-opacity="0"/>
	<g clip-path="url(#clip34_218)">
		<path id="Vector" d="M28 18.66L26.66 18.66L26.66 9.33C26.66 8.27 26.24 7.25 25.49 6.5C24.74 5.75 23.72 5.33 22.66 5.33L9.33 5.33C8.27 5.33 7.25 5.75 6.5 6.5C5.75 7.25 5.33 8.27 5.33 9.33L5.33 18.66L4 18.66C3.64 18.66 3.3 18.8 3.05 19.05C2.8 19.3 2.66 19.64 2.66 20L2.66 22.66C2.66 23.72 3.08 24.74 3.83 25.49C4.58 26.24 5.6 26.66 6.66 26.66L25.33 26.66C26.39 26.66 27.41 26.24 28.16 25.49C28.91 24.74 29.33 23.72 29.33 22.66L29.33 20C29.33 19.64 29.19 19.3 28.94 19.05C28.69 18.8 28.35 18.66 28 18.66ZM8 9.33C8 8.97 8.14 8.64 8.39 8.39C8.64 8.14 8.97 8 9.33 8L22.66 8C23.02 8 23.35 8.14 23.6 8.39C23.85 8.64 24 8.97 24 9.33L24 18.66L8 18.66L8 9.33ZM26.66 22.66C26.66 23.02 26.52 23.35 26.27 23.6C26.02 23.85 25.68 24 25.33 24L6.66 24C6.31 24 5.97 23.85 5.72 23.6C5.47 23.35 5.33 23.02 5.33 22.66L5.33 21.33L26.66 21.33L26.66 22.66Z" fill="#A53DFF" fill-opacity="1.000000" fill-rule="nonzero"/>
	</g>
</svg>
