<svg width="32.000000" height="32.000000" viewBox="0 0 32 32" fill="none" xmlns="http://www.w3.org/2000/svg" xmlns:xlink="http://www.w3.org/1999/xlink">
	<desc>
			Created with Pixso.
	</desc>
	<defs>
		<clipPath id="clip34_236">
			<rect id="Education / notes" width="32.000000" height="32.000000" fill="white" fill-opacity="0"/>
		</clipPath>
	</defs>
	<rect id="Education / notes" width="32.000000" height="32.000000" fill="#FFFFFF" fill-opacity="0"/>
	<g clip-path="url(#clip34_236)">
		<path id="Vector" d="M21.33 18.66L10.66 18.66C10.31 18.66 9.97 18.8 9.72 19.05C9.47 19.3 9.33 19.64 9.33 19.99C9.33 20.35 9.47 20.69 9.72 20.94C9.97 21.19 10.31 21.33 10.66 21.33L21.33 21.33C21.68 21.33 22.02 21.19 22.27 20.94C22.52 20.69 22.66 20.35 22.66 19.99C22.66 19.64 22.52 19.3 22.27 19.05C22.02 18.8 21.68 18.66 21.33 18.66ZM21.33 13.33L13.33 13.33C12.97 13.33 12.64 13.47 12.39 13.72C12.14 13.97 12 14.31 12 14.66C12 15.02 12.14 15.35 12.39 15.6C12.64 15.85 12.97 15.99 13.33 15.99L21.33 15.99C21.68 15.99 22.02 15.85 22.27 15.6C22.52 15.35 22.66 15.02 22.66 14.66C22.66 14.31 22.52 13.97 22.27 13.72C22.02 13.47 21.68 13.33 21.33 13.33ZM26.66 5.33L22.66 5.33L22.66 3.99C22.66 3.64 22.52 3.3 22.27 3.05C22.02 2.8 21.68 2.66 21.33 2.66C20.97 2.66 20.64 2.8 20.39 3.05C20.14 3.3 20 3.64 20 3.99L20 5.33L17.33 5.33L17.33 3.99C17.33 3.64 17.19 3.3 16.94 3.05C16.69 2.8 16.35 2.66 16 2.66C15.64 2.66 15.3 2.8 15.05 3.05C14.8 3.3 14.66 3.64 14.66 3.99L14.66 5.33L12 5.33L12 3.99C12 3.64 11.85 3.3 11.6 3.05C11.35 2.8 11.02 2.66 10.66 2.66C10.31 2.66 9.97 2.8 9.72 3.05C9.47 3.3 9.33 3.64 9.33 3.99L9.33 5.33L5.33 5.33C4.97 5.33 4.64 5.47 4.39 5.72C4.14 5.97 4 6.31 4 6.66L4 25.33C4 26.39 4.42 27.41 5.17 28.16C5.92 28.91 6.93 29.33 8 29.33L24 29.33C25.06 29.33 26.07 28.91 26.82 28.16C27.57 27.41 28 26.39 28 25.33L28 6.66C28 6.31 27.85 5.97 27.6 5.72C27.35 5.47 27.02 5.33 26.66 5.33ZM25.33 25.33C25.33 25.68 25.19 26.02 24.94 26.27C24.69 26.52 24.35 26.66 24 26.66L8 26.66C7.64 26.66 7.3 26.52 7.05 26.27C6.8 26.02 6.66 25.68 6.66 25.33L6.66 7.99L9.33 7.99L9.33 9.33C9.33 9.68 9.47 10.02 9.72 10.27C9.97 10.52 10.31 10.66 10.66 10.66C11.02 10.66 11.35 10.52 11.6 10.27C11.85 10.02 12 9.68 12 9.33L12 7.99L14.66 7.99L14.66 9.33C14.66 9.68 14.8 10.02 15.05 10.27C15.3 10.52 15.64 10.66 16 10.66C16.35 10.66 16.69 10.52 16.94 10.27C17.19 10.02 17.33 9.68 17.33 9.33L17.33 7.99L20 7.99L20 9.33C20 9.68 20.14 10.02 20.39 10.27C20.64 10.52 20.97 10.66 21.33 10.66C21.68 10.66 22.02 10.52 22.27 10.27C22.52 10.02 22.66 9.68 22.66 9.33L22.66 7.99L25.33 7.99L25.33 25.33Z" fill="#A53DFF" fill-opacity="1.000000" fill-rule="nonzero"/>
	</g>
</svg>
