<svg width="32.000000" height="32.000000" viewBox="0 0 32 32" fill="none" xmlns="http://www.w3.org/2000/svg" xmlns:xlink="http://www.w3.org/1999/xlink">
	<desc>
			Created with Pixso.
	</desc>
	<defs>
		<clipPath id="clip34_230">
			<rect id="User Interface / Pencil" width="32.000000" height="32.000000" fill="white" fill-opacity="0"/>
		</clipPath>
	</defs>
	<rect id="User Interface / Pencil" width="32.000000" height="32.000000" fill="#FFFFFF" fill-opacity="0"/>
	<g clip-path="url(#clip34_230)">
		<path id="Vector" d="M29.33 9.65C29.33 9.47 29.3 9.3 29.23 9.14C29.16 8.97 29.07 8.83 28.94 8.7L23.29 3.05C23.16 2.92 23.02 2.83 22.85 2.76C22.69 2.69 22.52 2.66 22.34 2.66C22.17 2.66 21.99 2.69 21.83 2.76C21.67 2.83 21.52 2.92 21.4 3.05L17.62 6.82L3.05 21.39C2.92 21.52 2.83 21.67 2.76 21.83C2.69 21.99 2.66 22.17 2.66 22.34L2.66 28C2.66 28.35 2.8 28.69 3.05 28.94C3.3 29.19 3.64 29.33 4 29.33L9.65 29.33C9.83 29.34 10.02 29.31 10.2 29.24C10.37 29.18 10.53 29.07 10.66 28.94L25.16 14.37L28.94 10.66C29.06 10.53 29.16 10.38 29.24 10.22C29.25 10.12 29.25 10.01 29.24 9.9C29.24 9.84 29.24 9.78 29.24 9.71L29.33 9.65ZM9.1 26.66L5.33 26.66L5.33 22.89L18.57 9.65L22.34 13.42L9.1 26.66ZM24.22 11.54L20.45 7.77L22.34 5.89L26.1 9.65L24.22 11.54Z" fill="#A53DFF" fill-opacity="1.000000" fill-rule="nonzero"/>
	</g>
</svg>
