<svg width="24.000000" height="24.000000" viewBox="0 0 24 24" fill="none" xmlns="http://www.w3.org/2000/svg" xmlns:xlink="http://www.w3.org/1999/xlink">
	<desc>
			Created with Pixso.
	</desc>
	<defs>
		<clipPath id="clip34_266">
			<rect id="Location and Map / location pin" width="24.000000" height="24.000000" fill="white" fill-opacity="0"/>
		</clipPath>
	</defs>
	<rect id="Location and Map / location pin" width="24.000000" height="24.000000" fill="#FFFFFF" fill-opacity="0"/>
	<g clip-path="url(#clip34_266)">
		<path id="Vector" d="M18 4.47C16.4 2.88 14.25 1.99 12 1.99C9.74 1.99 7.59 2.88 6 4.47C4.4 6.07 3.51 8.22 3.51 10.47C3.51 12.72 4.4 14.88 6 16.47L11.27 21.75C11.36 21.85 11.47 21.92 11.59 21.97C11.71 22.02 11.84 22.05 11.98 22.05C12.11 22.05 12.24 22.02 12.36 21.97C12.48 21.92 12.59 21.85 12.69 21.75L18 16.42C19.58 14.84 20.47 12.69 20.47 10.45C20.47 8.21 19.58 6.06 18 4.47ZM16.57 14.99L12 19.58L7.42 14.99C6.52 14.09 5.91 12.94 5.66 11.69C5.41 10.43 5.54 9.14 6.03 7.95C6.52 6.78 7.34 5.77 8.41 5.06C9.47 4.35 10.72 3.97 12 3.97C13.27 3.97 14.52 4.35 15.58 5.06C16.65 5.77 17.47 6.78 17.96 7.95C18.45 9.14 18.58 10.43 18.33 11.69C18.08 12.94 17.47 14.09 16.57 14.99ZM9 7.4C8.19 8.21 7.73 9.31 7.73 10.45C7.73 11.6 8.19 12.69 9 13.5C9.59 14.11 10.36 14.52 11.19 14.68C12.02 14.85 12.89 14.77 13.67 14.45C14.46 14.13 15.13 13.58 15.61 12.88C16.09 12.18 16.35 11.35 16.36 10.5C16.36 9.94 16.25 9.38 16.03 8.85C15.82 8.33 15.5 7.85 15.1 7.45C14.7 7.05 14.23 6.73 13.7 6.5C13.18 6.28 12.62 6.16 12.06 6.16C11.49 6.16 10.93 6.26 10.4 6.48C9.88 6.69 9.4 7.01 9 7.4ZM13.69 12.08C13.31 12.47 12.81 12.71 12.27 12.77C11.73 12.82 11.19 12.69 10.74 12.39C10.29 12.1 9.96 11.65 9.8 11.13C9.64 10.62 9.66 10.06 9.87 9.56C10.08 9.06 10.45 8.65 10.92 8.4C11.4 8.14 11.95 8.06 12.48 8.16C13.01 8.27 13.49 8.56 13.83 8.97C14.17 9.39 14.36 9.91 14.36 10.45C14.34 11.07 14.08 11.66 13.64 12.08L13.69 12.08Z" fill="white" fill-opacity="1.000000" fill-rule="nonzero"/>
	</g>
</svg>
